<?xml version="1.0" encoding="utf-8"?>
<!-- Generator: Adobe Illustrator 26.5.3, SVG Export Plug-In . SVG Version: 6.00 Build 0)  -->
<svg version="1.1" id="Layer_1" xmlns="http://www.w3.org/2000/svg" xmlns:xlink="http://www.w3.org/1999/xlink" x="0px" y="0px"
	 viewBox="0 0 46 46" style="enable-background:new 0 0 46 46;" xml:space="preserve">
<style type="text/css">
	.st0{fill:#334D76;}
	.st1{fill:#4AD7CC;}
	.st2{fill:#D3E9FF;}
	.st3{fill:#314D76;}
</style>
<g>
	<path class="st0" d="M21,45.2c-7-0.6-13.3-4.6-17-10.6l1.3-0.8c3.4,5.6,9.3,9.3,15.8,9.9L21,45.2z"/>
	<path class="st1" d="M23,45.3v-1.5c11.4,0,20.8-9.3,20.8-20.8S34.5,2.3,23,2.3S2.3,11.6,2.3,23c0,3.2,0.7,6.3,2.1,9.2l-1.3,0.7
		c-1.5-3.1-2.3-6.4-2.3-9.9c0-12.3,10-22.3,22.2-22.3s22.2,10,22.2,22.2S35.3,45.3,23,45.3z"/>
</g>
<path class="st2" d="M23,4.8C13,4.8,4.8,13,4.8,23S13,41.3,23,41.3S41.3,33.1,41.3,23S33.1,4.8,23,4.8z M32.1,33.8
	c-2.1,2.3-5,3.9-8.6,5L22.9,39l-0.5-0.2c-3.6-1.1-6.5-2.7-8.6-5c-2.8-3-4.2-7.1-4.2-12.2v-9.3l1.9-0.1c4.9-0.2,8-1.3,10.7-2.4
	l0.7-0.3l0.7,0.3c2.7,1.1,5.8,2.2,10.7,2.4l1.9,0.1v9.3C36.3,26.7,34.9,30.8,32.1,33.8L32.1,33.8z"/>
<path class="st3" d="M23,21.6c2,0,3.6-1.5,3.6-3.5s-1.7-3.4-3.6-3.4s-3.6,1.5-3.6,3.5S21,21.6,23,21.6z M23,16.2
	c1.1,0,2.1,0.9,2.1,2s-0.9,2-2.1,2s-2.1-0.9-2.1-2S21.8,16.2,23,16.2z"/>
<path class="st0" d="M34.1,13.4C29,13.2,25.7,12,23,10.9c-2.7,1.1-6,2.3-11.1,2.5c-0.4,0-0.7,0.3-0.7,0.8v7.4
	c0,4.8,1.3,8.5,3.9,11.3c2,2.1,4.5,3.6,7.9,4.6c3.3-1,5.9-2.5,7.9-4.6c2.6-2.8,3.9-6.5,3.9-11.3v-7.4C34.8,13.7,34.5,13.4,34.1,13.4
	z M33.4,21.5c0,4.4-1.2,7.8-3.5,10.3c-1.5,1.6-4.3,3.2-6.9,4.1c-2.6-0.9-5.4-2.5-6.9-4.1c-2.3-2.5-3.5-5.9-3.5-10.3v-6.7
	c4.2-0.3,7.9-1.5,10.4-2.4c2.5,0.9,6.2,2.1,10.4,2.4V21.5z"/>
<path class="st3" d="M23,23.7c2.6,0,4.7,2.1,4.7,4.7c0,0.5-0.1,0.9-0.2,1.4h-9c-0.1-0.4-0.2-0.9-0.2-1.4
	C18.3,25.8,20.4,23.7,23,23.7 M23,22.2c-3.4,0-6.2,2.8-6.2,6.2c0,1,0.3,2,0.7,2.9h11c0.5-0.9,0.7-1.8,0.7-2.9
	C29.2,25,26.4,22.2,23,22.2L23,22.2z"/>
</svg>
